<svg width="206" height="53" viewBox="0 0 206 53" fill="none" xmlns="http://www.w3.org/2000/svg">
<path d="M32.5354 47.3941C32.5498 47.1115 32.5707 46.8238 32.5981 46.5333C32.3804 46.4598 32.2009 46.3617 32.2009 46.3617C32.2009 46.3617 31.9521 46.808 31.3091 47.2615C30.5694 47.7827 29.5262 48.3342 27.775 48.3479C26.2589 48.3602 26.2726 46.4778 26.6972 45.2068C27.0195 44.2443 26.5026 43.2696 26.4658 42.6525C26.4233 41.9265 26.716 41.5019 27.0707 41.3094C27.2394 41.2178 27.452 41.1731 27.7022 41.171C27.7073 41.171 27.7123 41.171 27.7174 41.171C28.9595 41.1702 29.7922 41.3678 30.9587 42.2192C31.8238 42.8493 32.118 43.3979 32.118 43.3979C32.2924 43.3201 32.5902 43.16 33.0984 43.2019C33.1035 43.2019 33.1085 43.2033 33.1136 43.2033C33.3753 41.9179 33.6658 40.791 33.8576 40.091C33.3573 40.2179 32.8649 40.556 32.7012 41.716C32.6644 41.9755 32.4424 42.163 32.1879 42.163C32.1634 42.163 32.1389 42.1608 32.1144 42.1572C31.8303 42.1176 31.6328 41.8544 31.6731 41.5711C31.8808 40.0982 32.6154 39.2439 33.8569 39.0319C41.7064 37.6881 42.134 37.2145 42.8657 33.4771C42.8167 33.3639 42.7179 33.1678 42.5896 32.9242C42.3214 33.9911 41.6646 34.7907 41.0648 35.1764C39.5689 36.1388 37.9446 36.4431 36.8452 36.5288C36.5748 36.5498 36.3066 36.5598 36.0427 36.5598C34.8143 36.5598 33.686 36.3356 32.924 35.9261C32.6709 35.7906 32.5765 35.4763 32.7113 35.2232C32.8468 34.9709 33.1612 34.8757 33.4142 35.0113C34.1611 35.4121 35.4436 35.5959 36.7644 35.4936C37.7449 35.4172 39.1896 35.1482 40.5039 34.3033C40.9776 33.9984 42.0474 32.7994 41.55 30.9928C40.7786 30.5645 39.7563 30.5451 38.9316 30.0728C38.6749 29.9258 38.5012 29.5747 38.4283 29.194C38.2892 29.1645 38.1515 29.1234 38.016 29.0671C37.5437 28.8725 36.9519 28.6166 36.2122 28.2792C34.3868 27.4465 35.0435 31.2321 29.0259 30.7217C24.7102 30.3555 21.971 27.879 19.3984 30.4708C16.5265 33.3639 17.0498 37.74 20.0314 40.3325C24.1198 43.8867 25.4736 48.1619 25.9007 51.0348C25.9519 51.0348 26.0028 51.037 26.0541 51.037C28.3294 51.037 30.5333 50.7263 32.6269 50.1474C32.4734 48.7199 32.5325 47.4539 32.5354 47.3941Z" fill="#F7FBFA"/>
<path d="M41.1325 32.4043C40.2815 33.5826 39.1202 34.5607 37.7 35.1999L30.8342 38.2918C30.3033 38.5306 29.7611 38.7113 29.2146 38.8362C27.9236 39.1316 26.6091 39.1165 25.3657 38.8268C25.9803 37.6908 26.8532 36.6863 27.9477 35.9114C28.3928 35.5962 28.8747 35.3188 29.3909 35.0866L36.2567 31.9948C37.6769 31.3555 39.1791 31.1339 40.625 31.2779C41.1726 31.3321 41.4544 31.9585 41.1325 32.4043Z" fill="#F29B4C"/>
<path d="M48.7668 28.4262C47.9158 29.6045 46.7545 30.5826 45.3343 31.2219L38.4685 34.3137C37.9375 34.5526 37.3954 34.7333 36.8488 34.8582C35.5579 35.1536 34.2434 35.1385 33 34.8488C33.6146 33.7128 34.4875 32.7083 35.582 31.9333C36.0271 31.6182 36.509 31.3408 37.0252 31.1086L43.891 28.0168C45.3112 27.3775 46.8134 27.1559 48.2593 27.2998C48.8068 27.3541 49.0886 27.9804 48.7668 28.4262Z" fill="#F29B4C" stroke="#3C2C2D" stroke-width="0.865126"/>
<path d="M29.2146 38.8362C27.9236 39.1316 26.6091 39.1165 25.3657 38.8268C25.9803 37.6908 26.8532 36.6863 27.9477 35.9114C28.8081 36.6254 29.2824 37.7165 29.2146 38.8362Z" fill="#FFF273"/>
<path d="M26.187 36.4792C24.9525 36.0014 23.5661 36.6523 23.097 37.8901C22.8235 38.6116 22.1573 39.1096 21.3878 39.1677C21.0913 39.1901 21.0321 39.5996 21.3102 39.705L24.4502 40.8951C25.688 41.3643 27.0942 40.7575 27.5546 39.5165C28.0057 38.3007 27.3963 36.9473 26.187 36.4792Z" fill="#FFF273"/>
<path d="M25.4673 36.9928C24.159 36.4856 23.825 36.1906 23.2887 37.6057C22.9761 38.4306 22.2491 39.0131 21.4238 39.1001C21.1057 39.1337 21.031 39.5992 21.3259 39.711L24.6546 40.9726C25.9667 41.4699 26.3485 41.3612 26.8756 39.9426C27.0939 39.3551 25.8521 39.3213 25.6953 38.8686C25.4812 38.2506 26.2071 37.2796 25.4673 36.9928Z" fill="#FE6768"/>
<path d="M29.1713 38.5614C29.1308 38.44 29.0513 37.6939 28.8199 37.1826C28.5764 36.6448 28.0452 35.9916 27.9481 35.911C27.546 36.1959 27.1733 36.5119 26.8325 36.8543" stroke="#3C2C2D" stroke-width="0.865126" stroke-miterlimit="10" stroke-linecap="round" stroke-linejoin="round"/>
<path d="M26.8321 36.8545C27.1728 36.512 27.5456 36.196 27.9477 35.9112C28.3929 35.5961 28.8748 35.3186 29.391 35.0864L36.2567 31.9946C37.6769 31.3553 39.1792 31.1337 40.625 31.2777C41.1726 31.332 41.4543 31.9583 41.1325 32.4041C40.2815 33.5824 39.1202 34.5604 37.7 35.1998L30.8343 38.2916C30.3033 38.5304 29.7611 38.7111 29.2146 38.836C28.7036 38.953 28.1889 39.0213 27.6766 39.043" stroke="#3C2C2D" stroke-width="0.865126" stroke-miterlimit="10" stroke-linecap="round" stroke-linejoin="round"/>
<path d="M26.187 36.4792C24.9525 36.0014 23.5661 36.6523 23.097 37.8901C22.8235 38.6116 22.1573 39.1096 21.3878 39.1677C21.0913 39.1901 21.0321 39.5996 21.3102 39.705L24.4502 40.8951C25.688 41.3643 27.0942 40.7575 27.5546 39.5165C28.0057 38.3007 27.3963 36.9473 26.187 36.4792Z" stroke="#3C2C2D" stroke-width="0.865126" stroke-miterlimit="10" stroke-linecap="round" stroke-linejoin="round"/>
<path d="M33.3343 35.1003C33.0813 34.9648 32.7927 34.9704 32.6571 35.2227L28.9717 34.073L23.9531 35.493L19.7086 39.1015C16.7269 36.509 16.4723 33.3634 19.3443 30.4703C21.9168 27.8785 24.6561 30.3549 28.9717 30.7212C34.9894 31.2316 34.3326 27.4459 36.158 28.2786C36.8977 28.616 37.4896 28.8719 37.9618 29.0666C38.0973 29.1228 38.235 29.1639 38.3742 29.1935C38.447 29.5741 38.6207 29.9252 38.8774 30.0723C39.7021 30.5445 40.7244 30.564 41.4958 30.9922C41.9933 32.7989 40.9234 33.9978 40.4497 34.3028C39.1355 35.1477 37.6907 35.4166 36.7102 35.493C35.3895 35.5954 34.0812 35.5011 33.3343 35.1003Z" fill="#F7FBFA"/>
<path d="M43.2154 29.3084C43.2147 29.4534 43.2089 29.5983 43.2046 29.7432C43.2032 29.803 43.201 29.865 43.1988 29.9299L43.2003 29.9133C43.1988 29.9414 43.1974 29.9696 43.196 29.9977C43.1794 30.4295 43.1361 30.8787 42.9458 31.4936C43.1462 31.8534 43.3034 32.1439 43.4274 32.3804C43.9472 30.5708 43.7201 29.6134 43.2075 29.0266C43.2147 29.1138 43.2183 29.2068 43.2154 29.3084Z" fill="#F7FBFA"/>
<path d="M31.2562 11.2201C31.1221 11.0478 30.921 10.944 30.704 10.9339C30.4848 10.9252 30.2865 11.0074 30.138 11.166C29.1583 12.2164 28.3407 14.5897 27.9673 15.8081L29.1165 15.8521C30.4113 15.9033 31.6433 16.245 32.7269 16.8333C32.874 13.8032 31.8921 12.034 31.2562 11.2201Z" fill="#F29B4C"/>
<path d="M39.7619 26.9609C38.2602 26.8636 36.4542 24.7361 35.814 23.6958C35.7744 23.6316 35.7001 23.597 35.6258 23.6078L34.9914 23.7037C34.8905 23.7196 34.8191 23.814 34.8328 23.9157C35.2921 27.3351 33.9908 29.2967 30.9664 29.7459C30.6607 29.7906 30.337 29.8194 30.0032 29.831C29.965 29.8324 29.9268 29.8331 29.8886 29.8331C27.4857 29.8331 26.2573 27.2291 26.0374 25.9451C26.0215 25.8528 25.9325 25.7851 25.849 25.7887L21.7042 26.1008C21.5293 26.0965 21.3639 26.1073 21.2017 26.1311C20.5447 26.2284 19.9376 26.5536 19.4923 27.0474C19.3726 27.1801 19.1608 27.2082 19.0101 27.1116C18.8424 27.0034 18.7328 26.8355 18.7015 26.6386C18.6701 26.4418 18.7222 26.2479 18.8481 26.0936L19.2383 25.6135C19.6323 25.1297 20.1889 24.8132 20.8059 24.7217L26.1224 23.6799C26.1873 23.6705 26.2378 23.6345 26.2659 23.5819C26.9832 22.2438 28.6897 22.0225 29.4178 21.9273C29.4813 21.9194 29.5368 21.9122 29.5829 21.905C29.7041 21.8869 29.7761 21.8812 29.7776 21.8812L35.3771 21.4529C35.1291 20.7825 34.7903 20.1257 34.3649 19.5677C33.1314 17.9499 31.2036 16.9745 29.0754 16.8901L22.9869 16.787C21.6654 16.7423 20.841 15.0575 19.8862 13.1059C19.1957 11.695 18.413 10.0953 17.4335 9.19482C17.1616 8.94465 16.7752 8.82714 16.3479 8.86391C15.8675 8.90428 15.4205 9.1357 15.1522 9.48248C14.1453 10.7845 12.9312 13.3409 12.8657 18.1258C12.865 18.1799 12.8559 18.2332 12.8389 18.2837C12.8117 18.3652 10.124 26.4649 10.4269 32.1365C10.6381 36.0923 8.60687 40.0589 7.18359 42.3198C11.6873 47.6129 18.3788 50.9891 25.8464 51.0345C25.4194 48.1615 24.0655 43.8864 19.9772 40.3321C16.9955 37.7396 16.4722 33.3636 19.3442 30.4704C21.9167 27.8787 24.656 30.3551 28.9716 30.7213C34.9893 31.2317 34.3325 27.4461 36.1579 28.2788C36.8976 28.6162 37.4895 28.8721 37.9617 29.0668C38.0972 29.123 38.2349 29.1641 38.3741 29.1936C38.2839 28.7178 38.3517 28.1944 38.6192 27.9644C39.0539 27.5888 39.635 27.3848 40.2348 27.2774C40.0827 27.1786 39.9248 27.0734 39.7619 26.9609Z" fill="#F29B4C"/>
<path d="M39.7619 26.9609C38.2602 26.8636 36.4542 24.7361 35.814 23.6958C35.7744 23.6316 35.7001 23.597 35.6258 23.6078L34.9914 23.7037C34.8905 23.7196 34.8191 23.814 34.8328 23.9157C35.2921 27.3351 33.9908 29.2967 30.9664 29.7459C30.6607 29.7906 30.337 29.8194 30.0032 29.831C29.965 29.8324 29.9268 29.8331 29.8886 29.8331C27.4857 29.8331 26.2573 27.2291 26.0374 25.9451C26.0215 25.8528 25.9325 25.7851 25.849 25.7887L21.7042 26.1008C21.5293 26.0965 21.3639 26.1073 21.2017 26.1311C20.5447 26.2284 19.9376 26.5536 19.4923 27.0474C19.3726 27.1801 19.1608 27.2082 19.0101 27.1116C18.8424 27.0034 18.7328 26.8355 18.7015 26.6386C18.6701 26.4418 18.7222 26.2479 18.8481 26.0936L19.2383 25.6135C19.6323 25.1297 20.1889 24.8132 20.8059 24.7217L26.1224 23.6799C26.1873 23.6705 26.2378 23.6345 26.2659 23.5819C26.9832 22.2438 28.6897 22.0225 29.4178 21.9273C29.4813 21.9194 29.5368 21.9122 29.5829 21.905C29.7041 21.8869 29.7762 21.8812 29.7776 21.8812L35.3771 21.4529C35.1291 20.7825 34.7903 20.1257 34.3649 19.5677C33.1314 17.9499 31.2036 16.9745 29.0754 16.8901L22.9869 16.787C21.6654 16.7423 20.841 15.0575 19.8862 13.1059C19.1957 11.695 18.413 10.0953 17.4335 9.19482C17.1616 8.94465 16.7752 8.82714 16.3479 8.86391C15.8675 8.90428 15.4205 9.1357 15.1522 9.48247C14.1453 10.7845 12.9312 13.3409 12.8657 18.1258C12.865 18.1799 12.8559 18.2332 12.8389 18.2837C12.8117 18.3652 10.124 26.4649 10.4269 32.1365C10.6381 36.0923 8.60687 40.0589 7.18359 42.3198C11.6873 47.6129 18.3788 50.9891 25.8464 51.0345C25.4194 48.1615 24.0655 43.8864 19.9772 40.3321C16.9955 37.7396 16.4722 33.3636 19.3442 30.4704C21.9167 27.8787 24.656 30.3551 28.9716 30.7213C34.9893 31.2317 34.3325 27.4461 36.1579 28.2788C36.8976 28.6162 37.4895 28.8721 37.9617 29.0668C38.0972 29.123 38.2349 29.1641 38.3741 29.1936C38.2839 28.7178 38.3517 28.1944 38.6192 27.9644C39.0539 27.5888 39.635 27.3848 40.2348 27.2774C40.0827 27.1786 39.9248 27.0734 39.7619 26.9609Z" fill="#F29B4C"/>
<path d="M40.63 27.9405C40.5211 28.1712 40.7518 28.5093 41.1462 28.6953C41.5405 28.8827 41.9486 28.8474 42.0574 28.6174C42.1663 28.3867 41.9356 28.0493 41.5412 27.8619C41.1469 27.6752 40.7388 27.7105 40.63 27.9405Z" fill="#F7FBFA"/>
<path d="M30.5513 21.3236C31.5102 21.6235 32.42 21.4425 32.5836 20.9191C32.7473 20.3957 32.1035 19.7281 31.1446 19.4275C30.1865 19.1276 29.2767 19.3085 29.1123 19.8319C28.9487 20.3553 29.5925 21.0237 30.5513 21.3236Z" fill="#F7FBFA"/>
<path d="M35.1253 20.8485C34.9184 20.4008 34.6697 19.9718 34.3799 19.5875C34.1204 20.0749 34.0872 20.5478 34.341 20.7814C34.5198 20.9472 34.8081 20.9602 35.1253 20.8485Z" fill="#F7FBFA"/>
<path d="M32.8926 22.9115C32.2264 22.4898 30.3412 22.8445 29.9699 22.9202C29.9338 22.9274 29.9086 22.9605 29.9108 22.9973C29.9129 23.0341 29.9418 23.0636 29.9785 23.0665C29.9966 23.068 31.7484 23.2064 32.3692 23.5784C32.8212 23.8487 33.3489 24.2546 33.8406 25.2192C33.855 25.2481 33.886 25.2639 33.9177 25.2589C33.9214 25.2589 33.925 25.2574 33.9286 25.2567C33.9632 25.2459 33.9848 25.212 33.9797 25.176C33.9711 25.106 33.744 23.4515 32.8926 22.9115Z" fill="#F7FBFA"/>
<path d="M36.2217 22.2505C36.2383 22.252 37.8517 22.3796 38.4227 22.7213C38.8387 22.97 39.3246 23.3442 39.7774 24.2324C39.7918 24.2612 39.8228 24.2764 39.8538 24.272C39.8581 24.2713 39.8617 24.2706 39.8653 24.2691C39.8999 24.2583 39.9216 24.2244 39.9165 24.1891C39.9079 24.1242 39.6988 22.5966 38.9115 22.097C38.2958 21.7069 36.5555 22.0342 36.213 22.1042C36.177 22.1114 36.1518 22.1445 36.1539 22.1813C36.1561 22.2181 36.1849 22.2476 36.2217 22.2505Z" fill="#F7FBFA"/>
<path d="M17.3583 11.0621C17.41 11.0051 17.4414 10.9763 17.445 10.9734C17.5811 10.8588 17.5991 10.6548 17.4848 10.5178C17.3701 10.3801 17.1658 10.3613 17.0279 10.4767C16.9479 10.543 15.0729 12.1651 15.3851 17.0567C15.3915 17.1555 15.4429 17.2463 15.5246 17.3033C15.547 17.3184 16.195 17.4669 16.3635 17.0488C16.6765 16.2738 16.7985 15.5723 17.1181 15.4937C17.425 15.418 17.9244 16.441 18.0197 16.5499C18.0197 16.5499 18.1142 15.6581 18.4137 15.6581C18.6224 15.6581 18.9628 16.0596 19.1501 16.3033C19.5008 16.4511 19.4842 16.3502 19.5002 15.9746C19.5305 15.2644 18.3731 12.0094 17.3583 11.0621Z" fill="#3C2C2D"/>
<path d="M29.4614 15.8722C29.4614 15.8722 30.0295 12.69 31.0987 12.69C31.9227 12.69 32.1621 16.5874 32.1621 16.5874L29.4614 15.8722Z" fill="#3C2C2D"/>
<path d="M30.3543 14.1349C30.3392 14.1349 30.3233 14.1335 30.3074 14.1306C30.1712 14.1046 30.0811 13.9741 30.1063 13.8379C30.1121 13.8069 30.2562 13.0586 31.1048 12.4349C31.2173 12.3528 31.3751 12.3773 31.458 12.489C31.5402 12.6015 31.5157 12.7594 31.404 12.8423C30.7256 13.3397 30.6066 13.9064 30.6023 13.9302C30.5785 14.0506 30.4725 14.1349 30.3543 14.1349Z" fill="#3C2C2D"/>
<path d="M77.6943 21.5672C77.6352 20.8286 77.3582 20.2525 76.8634 19.8388C76.3759 19.4252 75.6335 19.2184 74.6364 19.2184C74.0011 19.2184 73.4804 19.2959 73.0741 19.451C72.6753 19.5988 72.3798 19.8019 72.1878 20.0604C71.9957 20.3189 71.896 20.6144 71.8886 20.9468C71.8739 21.2201 71.9219 21.4675 72.0327 21.6891C72.1509 21.9033 72.3355 22.0991 72.5866 22.2763C72.8378 22.4462 73.1591 22.6013 73.5506 22.7417C73.942 22.882 74.4074 23.0076 74.9466 23.1184L76.808 23.5172C78.0636 23.7831 79.1384 24.134 80.0321 24.5698C80.9259 25.0056 81.6571 25.5189 82.2259 26.1098C82.7946 26.6934 83.2119 27.3508 83.4778 28.082C83.7511 28.8133 83.8915 29.611 83.8989 30.4752C83.8915 31.9672 83.5185 33.2303 82.7798 34.2644C82.0412 35.2985 80.9849 36.0851 79.6111 36.6243C78.2446 37.1635 76.6011 37.4331 74.6807 37.4331C72.7085 37.4331 70.9875 37.1414 69.5176 36.5579C68.0551 35.9743 66.9176 35.0769 66.1051 33.8655C65.3 32.6468 64.8938 31.0883 64.8864 29.19H70.7364C70.7733 29.8843 70.9469 30.4678 71.2571 30.9405C71.5673 31.4133 72.0031 31.7715 72.5645 32.0152C73.1332 32.259 73.8091 32.3809 74.592 32.3809C75.2494 32.3809 75.7997 32.2996 76.2429 32.1371C76.6861 31.9746 77.0222 31.7493 77.2511 31.4613C77.4801 31.1732 77.5983 30.8445 77.6057 30.4752C77.5983 30.128 77.4838 29.8252 77.2622 29.5667C77.048 29.3008 76.6935 29.0644 76.1986 28.8576C75.7037 28.6434 75.0352 28.4439 74.1932 28.2593L71.933 27.7718C69.9239 27.336 68.3395 26.6084 67.1798 25.5891C66.0276 24.5624 65.4551 23.1627 65.4625 21.39C65.4551 19.9496 65.8392 18.6902 66.6148 17.6118C67.3977 16.526 68.4798 15.6803 69.8611 15.0746C71.2497 14.4689 72.8415 14.1661 74.6364 14.1661C76.4682 14.1661 78.0526 14.4726 79.3895 15.0857C80.7264 15.6988 81.7568 16.563 82.4807 17.6783C83.2119 18.7863 83.5813 20.0826 83.5886 21.5672H77.6943ZM86.2422 37.1672V14.4763H92.4024V23.34H100.557V14.4763H106.717V37.1672H100.557V28.3036H92.4024V37.1672H86.2422ZM115.802 14.4763V37.1672H109.642V14.4763H115.802ZM118.722 37.1672V14.4763H128.561C130.289 14.4763 131.74 14.709 132.915 15.1743C134.097 15.6397 134.987 16.2971 135.585 17.1465C136.191 17.9959 136.493 18.9968 136.493 20.1491C136.493 20.9837 136.309 21.7445 135.939 22.4314C135.578 23.1184 135.068 23.6945 134.411 24.1598C133.753 24.6178 132.985 24.9354 132.106 25.1127V25.3343C133.081 25.3712 133.967 25.6187 134.765 26.0766C135.563 26.5272 136.198 27.1513 136.671 27.9491C137.143 28.7394 137.38 29.6701 137.38 30.7411C137.38 31.982 137.055 33.0863 136.405 34.0539C135.762 35.0215 134.846 35.7823 133.657 36.3363C132.468 36.8902 131.05 37.1672 129.403 37.1672H118.722ZM124.882 32.2479H127.763C128.797 32.2479 129.572 32.0559 130.089 31.6718C130.607 31.2803 130.865 30.7042 130.865 29.9434C130.865 29.4116 130.743 28.961 130.499 28.5917C130.256 28.2223 129.909 27.9417 129.458 27.7496C129.015 27.5576 128.479 27.4616 127.851 27.4616H124.882V32.2479ZM124.882 23.6502H127.408C127.947 23.6502 128.424 23.5652 128.838 23.3954C129.251 23.2255 129.572 22.9817 129.801 22.6641C130.038 22.3391 130.156 21.9439 130.156 21.4786C130.156 20.7769 129.905 20.2414 129.403 19.8721C128.9 19.4954 128.265 19.307 127.497 19.307H124.882V23.6502Z" fill="#3C2C2D"/>
<path d="M145.457 37.1672H138.809L146.299 14.4763H154.719L162.209 37.1672H155.561L150.598 20.7252H150.42L145.457 37.1672ZM144.216 28.215H156.714V32.8241H144.216V28.215ZM164.395 37.1672V14.4763H174.189C175.873 14.4763 177.347 14.7829 178.61 15.3959C179.873 16.009 180.855 16.8917 181.557 18.0439C182.258 19.1962 182.609 20.5775 182.609 22.1877C182.609 23.8127 182.247 25.1829 181.524 26.2982C180.807 27.4135 179.799 28.2556 178.499 28.8243C177.206 29.3931 175.696 29.6775 173.967 29.6775H168.117V24.8911H172.726C173.45 24.8911 174.067 24.8025 174.577 24.6252C175.094 24.4405 175.489 24.1488 175.762 23.7499C176.043 23.351 176.183 22.8303 176.183 22.1877C176.183 21.5377 176.043 21.0096 175.762 20.6033C175.489 20.1897 175.094 19.8868 174.577 19.6948C174.067 19.4954 173.45 19.3956 172.726 19.3956H170.555V37.1672H164.395ZM177.69 26.7525L183.363 37.1672H176.671L171.131 26.7525H177.69ZM184.615 19.44V14.4763H204.336V19.44H197.511V37.1672H191.44V19.44H184.615Z" fill="#FE6768"/>
</svg>
