<svg width="206" height="54" viewBox="0 0 206 54" fill="none" xmlns="http://www.w3.org/2000/svg">
<path d="M32.5354 48.2272C32.5498 47.9446 32.5707 47.657 32.5981 47.3664C32.3804 47.2929 32.2009 47.1948 32.2009 47.1948C32.2009 47.1948 31.9521 47.6411 31.3091 48.0946C30.5694 48.6158 29.5262 49.1673 27.775 49.181C26.2589 49.1933 26.2726 47.3109 26.6972 46.0399C27.0195 45.0774 26.5026 44.1027 26.4658 43.4856C26.4233 42.7596 26.716 42.335 27.0707 42.1425C27.2394 42.0509 27.452 42.0062 27.7022 42.0041C27.7073 42.0041 27.7123 42.0041 27.7174 42.0041C28.9595 42.0034 29.7922 42.2009 30.9587 43.0523C31.8238 43.6824 32.118 44.2311 32.118 44.2311C32.2924 44.1532 32.5902 43.9931 33.0984 44.035C33.1035 44.035 33.1085 44.0364 33.1136 44.0364C33.3753 42.751 33.6658 41.6241 33.8576 40.9241C33.3573 41.051 32.8649 41.3891 32.7012 42.5491C32.6644 42.8086 32.4424 42.9961 32.1879 42.9961C32.1634 42.9961 32.1389 42.9939 32.1144 42.9903C31.8303 42.9507 31.6328 42.6875 31.6731 42.4042C31.8808 40.9313 32.6154 40.077 33.8569 39.8651C41.7064 38.5212 42.134 38.0476 42.8657 34.3102C42.8167 34.197 42.7179 34.0009 42.5896 33.7573C42.3214 34.8243 41.6646 35.6238 41.0648 36.0095C39.5689 36.9719 37.9446 37.2762 36.8452 37.362C36.5748 37.3829 36.3066 37.393 36.0427 37.393C34.8143 37.393 33.686 37.1687 32.924 36.7592C32.6709 36.6237 32.5765 36.3094 32.7113 36.0563C32.8468 35.804 33.1612 35.7088 33.4142 35.8444C34.1611 36.2452 35.4436 36.4291 36.7644 36.3267C37.7449 36.2503 39.1896 35.9814 40.5039 35.1364C40.9776 34.8315 42.0474 33.6325 41.55 31.8259C40.7786 31.3976 39.7563 31.3782 38.9316 30.906C38.6749 30.7589 38.5012 30.4078 38.4283 30.0271C38.2892 29.9976 38.1515 29.9565 38.016 29.9002C37.5437 29.7056 36.9519 29.4497 36.2122 29.1123C34.3868 28.2796 35.0435 32.0652 29.0259 31.5548C24.7102 31.1886 21.971 28.7121 19.3984 31.3039C16.5265 34.197 17.0498 38.5731 20.0314 41.1656C24.1198 44.7198 25.4736 48.995 25.9007 51.868C25.9519 51.868 26.0028 51.8701 26.0541 51.8701C28.3294 51.8701 30.5333 51.5594 32.6269 50.9805C32.4734 49.553 32.5325 48.2871 32.5354 48.2272Z" fill="#F7FBFA"/>
<path d="M41.1325 33.2371C40.2815 34.4154 39.1202 35.3935 37.7 36.0328L30.8342 39.1246C30.3033 39.3635 29.7611 39.5442 29.2146 39.669C27.9236 39.9645 26.6091 39.9494 25.3657 39.6597C25.9803 38.5237 26.8532 37.5192 27.9477 36.7442C28.3928 36.4291 28.8747 36.1517 29.3909 35.9195L36.2567 32.8277C37.6769 32.1884 39.1791 31.9668 40.625 32.1107C41.1726 32.165 41.4544 32.7913 41.1325 33.2371Z" fill="#F29B4C"/>
<path d="M48.7668 29.2591C47.9158 30.4374 46.7545 31.4155 45.3343 32.0548L38.4685 35.1466C37.9375 35.3854 37.3954 35.5662 36.8488 35.691C35.5579 35.9864 34.2434 35.9714 33 35.6816C33.6146 34.5457 34.4875 33.5412 35.582 32.7662C36.0271 32.4511 36.509 32.1737 37.0252 31.9415L43.891 28.8497C45.3112 28.2104 46.8134 27.9888 48.2593 28.1327C48.8068 28.187 49.0886 28.8133 48.7668 29.2591Z" fill="#F29B4C" stroke="#3C2C2D" stroke-width="0.865126"/>
<path d="M29.2146 39.669C27.9236 39.9645 26.6091 39.9494 25.3657 39.6597C25.9803 38.5237 26.8532 37.5192 27.9477 36.7442C28.8081 37.4583 29.2824 38.5494 29.2146 39.669Z" fill="#FFF273"/>
<path d="M26.187 37.3124C24.9525 36.8346 23.5661 37.4854 23.097 38.7232C22.8235 39.4447 22.1573 39.9427 21.3878 40.0008C21.0913 40.0232 21.0321 40.4327 21.3102 40.5381L24.4502 41.7282C25.688 42.1974 27.0942 41.5906 27.5546 40.3496C28.0057 39.1338 27.3963 37.7804 26.187 37.3124Z" fill="#FFF273"/>
<path d="M25.4673 37.8259C24.159 37.3187 23.825 37.0237 23.2887 38.4388C22.9761 39.2637 22.2491 39.8462 21.4238 39.9332C21.1057 39.9668 21.031 40.4323 21.3259 40.5441L24.6546 41.8057C25.9667 42.303 26.3485 42.1943 26.8756 40.7757C27.0939 40.1882 25.8521 40.1544 25.6953 39.7017C25.4812 39.0837 26.2071 38.1127 25.4673 37.8259Z" fill="#FE6768"/>
<path d="M29.1713 39.3943C29.1308 39.2729 29.0513 38.5268 28.8199 38.0155C28.5764 37.4777 28.0452 36.8245 27.9481 36.7439C27.546 37.0288 27.1733 37.3448 26.8325 37.6872" stroke="#3C2C2D" stroke-width="0.865126" stroke-miterlimit="10" stroke-linecap="round" stroke-linejoin="round"/>
<path d="M26.8321 37.6875C27.1728 37.345 27.5456 37.029 27.9477 36.7442C28.3929 36.4291 28.8748 36.1517 29.391 35.9194L36.2567 32.8276C37.6769 32.1884 39.1792 31.9667 40.625 32.1107C41.1726 32.165 41.4543 32.7913 41.1325 33.2371C40.2815 34.4154 39.1202 35.3935 37.7 36.0328L30.8343 39.1246C30.3033 39.3634 29.7611 39.5442 29.2146 39.669C28.7036 39.786 28.1889 39.8544 27.6766 39.876" stroke="#3C2C2D" stroke-width="0.865126" stroke-miterlimit="10" stroke-linecap="round" stroke-linejoin="round"/>
<path d="M26.187 37.3124C24.9525 36.8346 23.5661 37.4854 23.097 38.7232C22.8235 39.4447 22.1573 39.9427 21.3878 40.0008C21.0913 40.0232 21.0321 40.4327 21.3102 40.5381L24.4502 41.7282C25.688 42.1974 27.0942 41.5906 27.5546 40.3496C28.0057 39.1338 27.3963 37.7804 26.187 37.3124Z" stroke="#3C2C2D" stroke-width="0.865126" stroke-miterlimit="10" stroke-linecap="round" stroke-linejoin="round"/>
<path d="M33.3343 35.9334C33.0813 35.7978 32.7927 35.8034 32.6571 36.0557L28.9717 34.906L23.9531 36.3261L19.7086 39.9346C16.7269 37.3421 16.4723 34.1965 19.3443 31.3033C21.9168 28.7116 24.6561 31.188 28.9717 31.5542C34.9894 32.0646 34.3326 28.279 36.158 29.1117C36.8977 29.4491 37.4896 29.705 37.9618 29.8997C38.0973 29.9559 38.235 29.997 38.3742 30.0265C38.447 30.4072 38.6207 30.7583 38.8774 30.9054C39.7021 31.3776 40.7244 31.397 41.4958 31.8253C41.9933 33.632 40.9234 34.8309 40.4497 35.1358C39.1355 35.9808 37.6907 36.2497 36.7102 36.3261C35.3895 36.4285 34.0812 36.3342 33.3343 35.9334Z" fill="#F7FBFA"/>
<path d="M43.2154 30.1415C43.2147 30.2864 43.2089 30.4313 43.2046 30.5762C43.2032 30.636 43.201 30.698 43.1988 30.7629L43.2003 30.7463C43.1988 30.7744 43.1974 30.8026 43.196 30.8307C43.1794 31.2625 43.1361 31.7117 42.9458 32.3266C43.1462 32.6864 43.3034 32.9769 43.4274 33.2134C43.9472 31.4038 43.7201 30.4464 43.2075 29.8596C43.2147 29.9468 43.2183 30.0398 43.2154 30.1415Z" fill="#F7FBFA"/>
<path d="M31.2562 12.0533C31.1221 11.881 30.921 11.7772 30.704 11.7671C30.4848 11.7584 30.2865 11.8406 30.138 11.9992C29.1583 13.0496 28.3407 15.4229 27.9673 16.6413L29.1165 16.6853C30.4113 16.7365 31.6433 17.0782 32.7269 17.6665C32.874 14.6364 31.8921 12.8672 31.2562 12.0533Z" fill="#F29B4C"/>
<path d="M39.7619 27.7941C38.2602 27.6968 36.4542 25.5693 35.814 24.529C35.7744 24.4648 35.7001 24.4302 35.6258 24.441L34.9914 24.5369C34.8905 24.5528 34.8191 24.6472 34.8328 24.7489C35.2921 28.1683 33.9908 30.1299 30.9664 30.5791C30.6607 30.6238 30.337 30.6526 30.0032 30.6642C29.965 30.6656 29.9268 30.6663 29.8886 30.6663C27.4857 30.6663 26.2573 28.0623 26.0374 26.7783C26.0215 26.686 25.9325 26.6183 25.849 26.6219L21.7042 26.934C21.5293 26.9297 21.3639 26.9405 21.2017 26.9643C20.5447 27.0616 19.9376 27.3868 19.4923 27.8806C19.3726 28.0133 19.1608 28.0414 19.0101 27.9448C18.8424 27.8366 18.7328 27.6687 18.7015 27.4718C18.6701 27.275 18.7222 27.0811 18.8481 26.9268L19.2383 26.4467C19.6323 25.9629 20.1889 25.6464 20.8059 25.5549L26.1224 24.5131C26.1873 24.5037 26.2378 24.4677 26.2659 24.4151C26.9832 23.077 28.6897 22.8557 29.4178 22.7605C29.4813 22.7526 29.5368 22.7454 29.5829 22.7382C29.7041 22.7201 29.7761 22.7144 29.7776 22.7144L35.3771 22.2861C35.1291 21.6157 34.7903 20.9589 34.3649 20.4009C33.1314 18.7831 31.2036 17.8077 29.0754 17.7233L22.9869 17.6202C21.6654 17.5755 20.841 15.8907 19.8862 13.9391C19.1957 12.5282 18.413 10.9285 17.4335 10.028C17.1616 9.77785 16.7752 9.66034 16.3479 9.69711C15.8675 9.73748 15.4205 9.96891 15.1522 10.3157C14.1453 11.6177 12.9312 14.1741 12.8657 18.959C12.865 19.0131 12.8559 19.0664 12.8389 19.1169C12.8117 19.1984 10.124 27.2981 10.4269 32.9697C10.6381 36.9255 8.60687 40.8921 7.18359 43.153C11.6873 48.4461 18.3788 51.8223 25.8464 51.8677C25.4194 48.9947 24.0655 44.7196 19.9772 41.1653C16.9955 38.5729 16.4722 34.1968 19.3442 31.3036C21.9167 28.7119 24.656 31.1883 28.9716 31.5545C34.9893 32.0649 34.3325 28.2793 36.1579 29.112C36.8976 29.4494 37.4895 29.7053 37.9617 29.9C38.0972 29.9562 38.2349 29.9973 38.3741 30.0268C38.2839 29.551 38.3517 29.0276 38.6192 28.7976C39.0539 28.422 39.635 28.218 40.2348 28.1106C40.0827 28.0118 39.9248 27.9066 39.7619 27.7941Z" fill="#F29B4C"/>
<path d="M40.63 28.7736C40.5211 29.0043 40.7518 29.3425 41.1462 29.5285C41.5405 29.7159 41.9486 29.6806 42.0574 29.4506C42.1663 29.2199 41.9356 28.8825 41.5412 28.695C41.1469 28.5083 40.7388 28.5437 40.63 28.7736Z" fill="#F7FBFA"/>
<path d="M30.5513 22.1565C31.5102 22.4564 32.42 22.2754 32.5836 21.752C32.7473 21.2286 32.1035 20.561 31.1446 20.2604C30.1865 19.9605 29.2767 20.1414 29.1123 20.6648C28.9487 21.1883 29.5925 21.8566 30.5513 22.1565Z" fill="#F7FBFA"/>
<path d="M35.1253 21.6817C34.9184 21.234 34.6697 20.805 34.3799 20.4207C34.1204 20.9081 34.0872 21.381 34.341 21.6146C34.5198 21.7804 34.8081 21.7934 35.1253 21.6817Z" fill="#F7FBFA"/>
<path d="M32.8926 23.7445C32.2264 23.3227 30.3412 23.6774 29.9699 23.7531C29.9338 23.7603 29.9086 23.7935 29.9108 23.8303C29.9129 23.867 29.9418 23.8966 29.9785 23.8995C29.9966 23.9009 31.7484 24.0393 32.3692 24.4113C32.8212 24.6817 33.3489 25.0876 33.8406 26.0522C33.855 26.081 33.886 26.0969 33.9177 26.0918C33.9214 26.0918 33.925 26.0904 33.9286 26.0897C33.9632 26.0789 33.9848 26.045 33.9797 26.0089C33.9711 25.939 33.744 24.2845 32.8926 23.7445Z" fill="#F7FBFA"/>
<path d="M36.2217 23.0837C36.2383 23.0852 37.8517 23.2128 38.4227 23.5545C38.8387 23.8032 39.3246 24.1774 39.7774 25.0656C39.7918 25.0944 39.8228 25.1096 39.8538 25.1052C39.8581 25.1045 39.8617 25.1038 39.8653 25.1023C39.8999 25.0915 39.9216 25.0576 39.9165 25.0223C39.9079 24.9574 39.6988 23.4298 38.9115 22.9302C38.2958 22.5401 36.5555 22.8674 36.213 22.9374C36.177 22.9446 36.1518 22.9777 36.1539 23.0145C36.1561 23.0513 36.1849 23.0808 36.2217 23.0837Z" fill="#F7FBFA"/>
<path d="M33.5858 50.6766C33.4661 49.4049 33.518 48.2911 33.5187 48.2774C33.5339 47.9731 33.5584 47.6595 33.5901 47.3423C33.877 47.2327 33.9484 47.0763 33.9484 47.0763C34.8669 48.0351 36.2417 48.7337 37.1321 48.7265C37.2135 48.7258 37.2914 48.7193 37.3649 48.7063C38.5271 48.5008 38.5833 47.5658 38.0059 45.7807C37.7369 44.9473 38.6763 42.995 37.8119 42.4442C37.7038 42.375 37.4688 42.352 37.308 42.3534C37.2698 42.3534 37.2352 42.3541 37.2085 42.3584C35.7839 42.5531 34.5533 43.7124 34.0941 44.1731C34.4206 42.5877 34.789 41.2468 34.9397 40.7205C41.7511 39.5158 42.9046 38.7898 43.7215 35.0373C43.8462 34.984 43.9507 34.883 44.0033 34.7468C45.9434 29.6944 43.6371 28.6592 42.2594 28.0413C42.1491 27.9916 42.0438 27.944 41.9443 27.8964C41.6156 27.7385 41.196 27.4985 40.713 27.1813C40.7887 26.9657 40.8348 26.6896 40.8132 26.3565C40.7382 25.2052 40.4188 24.1065 39.8652 23.0899C39.5105 22.4411 38.7895 22.0575 38.0246 22.1131L36.4501 22.2075C36.161 21.3316 35.7385 20.4895 35.1906 19.7707C34.7667 19.2156 34.2728 18.7268 33.7235 18.3101C34.0573 14.5865 32.8432 12.3991 32.0747 11.4143C31.7532 11.0027 31.2709 10.754 30.7503 10.7309C30.2262 10.7093 29.7331 10.9126 29.3791 11.2918C28.1701 12.588 27.2437 15.4184 26.894 16.6008L23.0244 16.5827C22.324 16.559 21.5243 14.9246 20.8189 13.4827C20.0882 11.9889 19.2597 10.2962 18.1362 9.26377C17.6479 8.81463 16.9821 8.60123 16.2604 8.66251C15.4955 8.7274 14.7743 9.10805 14.3312 9.68048C13.2333 11.1 11.9113 13.8439 11.8291 18.8645C11.5319 19.7671 9.08945 27.3903 9.39044 33.0245C9.57796 36.5361 7.8268 40.1149 6.49039 42.3008C3.23766 38.1172 1.29769 32.8651 1.29769 27.1668C1.29769 13.5461 12.3792 2.46461 26.0001 2.46461C39.6208 2.46461 50.7023 13.5461 50.7023 27.1668C50.7023 38.1424 43.5066 47.4677 33.5858 50.6766ZM36.1538 23.015C36.1516 22.9782 36.1768 22.945 36.2129 22.9378C36.5553 22.8679 38.2957 22.5406 38.9114 22.9306C39.6986 23.4302 39.9077 24.9579 39.9163 25.0228C39.9214 25.0581 39.8998 25.092 39.8652 25.1028C39.8616 25.1042 39.8579 25.105 39.8536 25.1057C39.8226 25.11 39.7916 25.0949 39.7772 25.066C39.3245 24.1778 38.8385 23.8037 38.4226 23.5549C37.8516 23.2132 36.2381 23.0856 36.2215 23.0842C36.1848 23.0813 36.1559 23.0517 36.1538 23.015ZM29.9104 23.8311C29.9083 23.7943 29.9335 23.7611 29.9696 23.7539C30.3408 23.6782 32.2261 23.3235 32.8922 23.7453C33.7437 24.2852 33.9708 25.9398 33.9794 26.0097C33.9845 26.0458 33.9628 26.0797 33.9282 26.0905C33.9246 26.0912 33.921 26.0926 33.9174 26.0926C33.8857 26.0977 33.8547 26.0818 33.8403 26.053C33.3486 25.0884 32.8209 24.6825 32.3688 24.4121C31.7481 24.0401 29.9962 23.9017 29.9782 23.9003C29.9414 23.8974 29.9126 23.8678 29.9104 23.8311ZM41.1463 29.5286C40.7519 29.3426 40.5212 29.0045 40.6301 28.7738C40.7389 28.5438 41.147 28.5085 41.5413 28.6952C41.9357 28.8827 42.1664 29.2201 42.0575 29.4508C41.9487 29.6808 41.5406 29.7161 41.1463 29.5286ZM43.4273 33.2141C43.3033 32.9776 43.1462 32.6871 42.9457 32.3273C43.1361 31.7124 43.1793 31.2632 43.1959 30.8314C43.1973 30.8033 43.1988 30.7751 43.2002 30.747L43.1988 30.7636C43.2009 30.6987 43.2031 30.6367 43.2046 30.5769C43.2089 30.432 43.2146 30.2871 43.2154 30.1421C43.2183 30.0405 43.2146 29.9475 43.2074 29.8603C43.72 30.4471 43.9471 31.4045 43.4273 33.2141ZM32.7271 17.667C31.6436 17.0787 30.4115 16.737 29.1167 16.6858L27.9675 16.6419C28.341 15.4235 29.1585 13.0501 30.1383 11.9997C30.2868 11.8411 30.485 11.7589 30.7042 11.7676C30.9212 11.7777 31.1223 11.8815 31.2564 12.0538C31.8923 12.8677 32.8742 14.6369 32.7271 17.667ZM26.0001 51.8698C25.9487 51.8698 25.8978 51.8676 25.8466 51.8676C18.379 51.8222 11.6875 48.4461 7.18379 43.1529C8.60707 40.8921 10.6383 36.9255 10.4271 32.9697C10.1242 27.298 12.8119 19.1983 12.8391 19.1168C12.8561 19.0664 12.8652 19.013 12.8659 18.959C12.9314 14.1741 14.1455 11.6176 15.1524 10.3156C15.4207 9.96885 15.8677 9.73743 16.3481 9.69706C16.7754 9.6603 17.1618 9.77781 17.4337 10.028C18.4132 10.9284 19.1959 12.5282 19.8864 13.9391C20.8412 15.8906 21.6656 17.5755 22.9871 17.6202L29.0756 17.7233C31.2038 17.8076 33.1316 18.783 34.3651 20.4008C34.7905 20.9588 35.1293 21.6156 35.3773 22.2861L29.7778 22.7143C29.7763 22.7143 29.7043 22.7201 29.5831 22.7381C29.537 22.7453 29.4815 22.7525 29.418 22.7605C28.6899 22.8556 26.9834 23.077 26.2661 24.415C26.238 24.4676 26.1875 24.5037 26.1226 24.5131L20.8061 25.5548C20.1891 25.6464 19.6325 25.9629 19.2385 26.4466L18.8483 26.9268C18.7224 27.081 18.6703 27.275 18.7017 27.4718C18.733 27.6686 18.8426 27.8366 19.0103 27.9447C19.161 28.0413 19.3728 28.0132 19.4925 27.8806C19.9378 27.3867 20.5449 27.0616 21.2019 26.9643C21.3641 26.9405 21.5295 26.9296 21.7044 26.934L25.8492 26.6218C25.9327 26.6182 26.0217 26.686 26.0376 26.7783C26.2574 28.0622 27.4859 30.6663 29.8888 30.6663C29.927 30.6663 29.9652 30.6656 30.0034 30.6641C30.3372 30.6526 30.6609 30.6237 30.9666 30.579C33.991 30.1299 35.2922 28.1682 34.833 24.7488C34.8193 24.6472 34.8907 24.5527 34.9916 24.5369L35.626 24.441C35.7003 24.4302 35.7746 24.4648 35.8142 24.5289C36.4544 25.5692 38.2604 27.6967 39.7621 27.7941C39.925 27.9065 40.0829 28.0118 40.235 28.1105C39.6352 28.218 39.0541 28.422 38.6194 28.7976C38.3519 29.0276 38.2841 29.551 38.3743 30.0268C38.4471 30.4075 38.6208 30.7586 38.8775 30.9056C39.7022 31.3778 40.7245 31.3973 41.4959 31.8255C41.9934 33.6322 40.9235 34.8311 40.4498 35.1361C39.1356 35.981 38.2359 36.1805 36.7103 36.3264C34.1176 36.5742 31.0329 34.9357 30.2861 34.5348C30.033 34.3993 29.7187 34.4945 29.5831 34.7468C29.4483 34.9998 29.5428 35.3142 29.7958 35.4497C30.5578 35.8592 33.454 37.3962 35.9887 37.3926C36.3023 37.3922 36.4785 37.3867 36.7911 37.3616C38.516 37.2234 39.5148 36.9716 41.0107 36.0091C41.6105 35.6234 42.2673 34.8239 42.5355 33.7569C42.6638 34.0006 42.7626 34.1967 42.8116 34.3099C42.0799 38.0472 41.6524 38.5209 33.8028 39.8647C32.5613 40.0767 31.8267 40.931 31.6191 42.4039C31.5787 42.6872 31.7762 42.9503 32.0603 42.99C32.0848 42.9936 32.1093 42.9958 32.1338 42.9958C32.3883 42.9958 32.6104 42.8083 32.6471 42.5488C32.8108 41.3888 33.3032 41.0507 33.8035 40.9238C33.6117 41.6238 33.3212 42.7506 33.0595 44.0361C33.0545 44.0361 33.0494 44.0346 33.0444 44.0346C32.5361 43.9928 32.2383 44.1529 32.0639 44.2307C32.0639 44.2307 31.7697 43.6821 30.9046 43.052C29.7381 42.2006 28.9055 42.003 27.6633 42.0037C27.6582 42.0037 27.6532 42.0037 27.6481 42.0037C27.398 42.0059 27.1853 42.0506 27.0166 42.1422C26.6619 42.3347 26.3692 42.7593 26.4117 43.4853C26.4485 44.1024 26.9654 45.0771 26.6432 46.0396C26.2185 47.3106 26.2048 49.1929 27.721 49.1807C29.4721 49.167 30.5153 48.6155 31.255 48.0942C31.8981 47.6408 32.1468 47.1945 32.1468 47.1945C32.1468 47.1945 32.3263 47.2926 32.544 47.3661C32.5166 47.6566 32.4957 47.9443 32.4813 48.2269C32.4784 48.2867 32.4193 49.5527 32.5729 50.9802C30.4793 51.5591 28.2754 51.8698 26.0001 51.8698ZM26.0001 1.16692C11.6636 1.16692 0 12.831 0 27.1668C0 41.5034 11.6636 53.1675 26.0001 53.1675C40.3367 53.1675 52 41.5034 52 27.1668C52 12.831 40.3367 1.16692 26.0001 1.16692Z" fill="#3C2C2D"/>
<path d="M17.3583 11.8953C17.41 11.8383 17.4414 11.8095 17.445 11.8066C17.5811 11.692 17.5991 11.488 17.4848 11.351C17.3701 11.2133 17.1658 11.1946 17.0279 11.3099C16.9479 11.3762 15.0729 12.9983 15.3851 17.8899C15.3915 17.9887 15.4429 18.0795 15.5246 18.1365C15.547 18.1516 16.195 18.3001 16.3635 17.882C16.6765 17.107 16.7985 16.4055 17.1181 16.3269C17.425 16.2512 17.9244 17.2742 18.0197 17.3831C18.0197 17.3831 18.1142 16.4913 18.4137 16.4913C18.6224 16.4913 18.9628 16.8928 19.1501 17.1365C19.5008 17.2843 19.4842 17.1834 19.5002 16.8078C19.5305 16.0976 18.3731 12.8426 17.3583 11.8953Z" fill="#3C2C2D"/>
<path d="M29.4614 16.7052C29.4614 16.7052 30.0295 13.523 31.0987 13.523C31.9227 13.523 32.1621 17.4204 32.1621 17.4204L29.4614 16.7052Z" fill="#3C2C2D"/>
<path d="M30.3543 14.9678C30.3392 14.9678 30.3233 14.9663 30.3074 14.9635C30.1712 14.9375 30.0811 14.807 30.1063 14.6708C30.1121 14.6398 30.2562 13.8914 31.1048 13.2678C31.2173 13.1856 31.3751 13.2101 31.458 13.3219C31.5402 13.4343 31.5157 13.5922 31.404 13.6751C30.7256 14.1726 30.6066 14.7392 30.6023 14.763C30.5785 14.8834 30.4725 14.9678 30.3543 14.9678Z" fill="#3C2C2D"/>
<path d="M77.6943 22.4C77.6352 21.6614 77.3582 21.0852 76.8634 20.6716C76.3759 20.258 75.6335 20.0511 74.6364 20.0511C74.0011 20.0511 73.4804 20.1287 73.0741 20.2838C72.6753 20.4315 72.3798 20.6347 72.1878 20.8932C71.9957 21.1517 71.896 21.4472 71.8886 21.7795C71.8739 22.0528 71.9219 22.3003 72.0327 22.5219C72.1509 22.7361 72.3355 22.9318 72.5866 23.1091C72.8378 23.279 73.1591 23.4341 73.5506 23.5744C73.942 23.7148 74.4074 23.8403 74.9466 23.9511L76.808 24.35C78.0636 24.6159 79.1384 24.9668 80.0321 25.4026C80.9259 25.8384 81.6571 26.3517 82.2259 26.9426C82.7946 27.5261 83.2119 28.1835 83.4778 28.9148C83.7511 29.646 83.8915 30.4437 83.8989 31.308C83.8915 32.8 83.5185 34.0631 82.7798 35.0972C82.0412 36.1312 80.9849 36.9179 79.6111 37.4571C78.2446 37.9963 76.6011 38.2659 74.6807 38.2659C72.7085 38.2659 70.9875 37.9741 69.5176 37.3906C68.0551 36.8071 66.9176 35.9097 66.1051 34.6983C65.3 33.4795 64.8938 31.921 64.8864 30.0227H70.7364C70.7733 30.717 70.9469 31.3006 71.2571 31.7733C71.5673 32.246 72.0031 32.6043 72.5645 32.848C73.1332 33.0918 73.8091 33.2136 74.592 33.2136C75.2494 33.2136 75.7997 33.1324 76.2429 32.9699C76.6861 32.8074 77.0222 32.5821 77.2511 32.294C77.4801 32.006 77.5983 31.6773 77.6057 31.308C77.5983 30.9608 77.4838 30.658 77.2622 30.3994C77.048 30.1335 76.6935 29.8972 76.1986 29.6903C75.7037 29.4761 75.0352 29.2767 74.1932 29.092L71.933 28.6045C69.9239 28.1687 68.3395 27.4412 67.1798 26.4219C66.0276 25.3952 65.4551 23.9955 65.4625 22.2227C65.4551 20.7824 65.8392 19.523 66.6148 18.4446C67.3977 17.3588 68.4798 16.5131 69.8611 15.9074C71.2497 15.3017 72.8415 14.9989 74.6364 14.9989C76.4682 14.9989 78.0526 15.3054 79.3895 15.9185C80.7264 16.5315 81.7568 17.3957 82.4807 18.5111C83.2119 19.619 83.5813 20.9153 83.5886 22.4H77.6943ZM86.2422 38V15.3091H92.4024V24.1727H100.557V15.3091H106.717V38H100.557V29.1364H92.4024V38H86.2422ZM115.802 15.3091V38H109.642V15.3091H115.802ZM118.722 38V15.3091H128.561C130.289 15.3091 131.74 15.5418 132.915 16.0071C134.097 16.4724 134.987 17.1298 135.585 17.9793C136.191 18.8287 136.493 19.8295 136.493 20.9818C136.493 21.8165 136.309 22.5773 135.939 23.2642C135.578 23.9511 135.068 24.5273 134.411 24.9926C133.753 25.4506 132.985 25.7682 132.106 25.9455V26.167C133.081 26.204 133.967 26.4514 134.765 26.9094C135.563 27.3599 136.198 27.9841 136.671 28.7818C137.143 29.5722 137.38 30.5028 137.38 31.5739C137.38 32.8148 137.055 33.919 136.405 34.8866C135.762 35.8543 134.846 36.6151 133.657 37.169C132.468 37.723 131.05 38 129.403 38H118.722ZM124.882 33.0807H127.763C128.797 33.0807 129.572 32.8886 130.089 32.5045C130.607 32.1131 130.865 31.5369 130.865 30.7761C130.865 30.2443 130.743 29.7937 130.499 29.4244C130.256 29.0551 129.909 28.7744 129.458 28.5824C129.015 28.3903 128.479 28.2943 127.851 28.2943H124.882V33.0807ZM124.882 24.483H127.408C127.947 24.483 128.424 24.398 128.838 24.2281C129.251 24.0582 129.572 23.8145 129.801 23.4969C130.038 23.1719 130.156 22.7767 130.156 22.3114C130.156 21.6097 129.905 21.0741 129.403 20.7048C128.9 20.3281 128.265 20.1398 127.497 20.1398H124.882V24.483Z" fill="#3C2C2D"/>
<path d="M145.457 38H138.809L146.299 15.3091H154.719L162.209 38H155.561L150.598 21.558H150.42L145.457 38ZM144.216 29.0477H156.714V33.6568H144.216V29.0477ZM164.395 38V15.3091H174.189C175.873 15.3091 177.347 15.6156 178.61 16.2287C179.873 16.8418 180.855 17.7244 181.557 18.8767C182.258 20.029 182.609 21.4102 182.609 23.0205C182.609 24.6455 182.247 26.0156 181.524 27.131C180.807 28.2463 179.799 29.0884 178.499 29.6571C177.206 30.2259 175.696 30.5102 173.967 30.5102H168.117V25.7239H172.726C173.45 25.7239 174.067 25.6352 174.577 25.458C175.094 25.2733 175.489 24.9815 175.762 24.5827C176.043 24.1838 176.183 23.6631 176.183 23.0205C176.183 22.3705 176.043 21.8423 175.762 21.4361C175.489 21.0224 175.094 20.7196 174.577 20.5276C174.067 20.3281 173.45 20.2284 172.726 20.2284H170.555V38H164.395ZM177.69 27.5852L183.363 38H176.671L171.131 27.5852H177.69ZM184.615 20.2727V15.3091H204.336V20.2727H197.511V38H191.44V20.2727H184.615Z" fill="#FE6768"/>
</svg>
