<svg width="206" height="53" viewBox="0 0 206 53" fill="none" xmlns="http://www.w3.org/2000/svg">
<path d="M32.5354 47.3941C32.5498 47.1115 32.5707 46.8238 32.5981 46.5333C32.3804 46.4598 32.2009 46.3617 32.2009 46.3617C32.2009 46.3617 31.9521 46.808 31.3091 47.2614C30.5694 47.7827 29.5262 48.3342 27.775 48.3479C26.2589 48.3601 26.2726 46.4778 26.6972 45.2068C27.0195 44.2443 26.5026 43.2696 26.4658 42.6525C26.4233 41.9265 26.716 41.5019 27.0707 41.3094C27.2394 41.2178 27.452 41.1731 27.7022 41.1709C27.7073 41.1709 27.7123 41.1709 27.7174 41.1709C28.9595 41.1702 29.7922 41.3678 30.9587 42.2192C31.8238 42.8493 32.118 43.3979 32.118 43.3979C32.2924 43.3201 32.5902 43.16 33.0984 43.2018C33.1035 43.2018 33.1085 43.2033 33.1136 43.2033C33.3753 41.9178 33.6658 40.791 33.8576 40.091C33.3573 40.2179 32.8649 40.556 32.7012 41.716C32.6644 41.9755 32.4424 42.163 32.1879 42.163C32.1634 42.163 32.1389 42.1608 32.1144 42.1572C31.8303 42.1175 31.6328 41.8544 31.6731 41.5711C31.8808 40.0982 32.6154 39.2439 33.8569 39.0319C41.7064 37.6881 42.134 37.2144 42.8657 33.4771C42.8167 33.3639 42.7179 33.1678 42.5896 32.9241C42.3214 33.9911 41.6646 34.7906 41.0648 35.1763C39.5689 36.1388 37.9446 36.443 36.8452 36.5288C36.5748 36.5497 36.3066 36.5598 36.0427 36.5598C34.8143 36.5598 33.686 36.3356 32.924 35.9261C32.6709 35.7906 32.5765 35.4763 32.7113 35.2232C32.8468 34.9709 33.1612 34.8757 33.4142 35.0112C34.1611 35.4121 35.4436 35.5959 36.7644 35.4936C37.7449 35.4171 39.1896 35.1482 40.5039 34.3033C40.9776 33.9983 42.0474 32.7994 41.55 30.9927C40.7786 30.5645 39.7563 30.545 38.9316 30.0728C38.6749 29.9258 38.5012 29.5746 38.4283 29.194C38.2892 29.1644 38.1515 29.1233 38.016 29.0671C37.5437 28.8725 36.9519 28.6165 36.2122 28.2791C34.3868 27.4464 35.0435 31.2321 29.0259 30.7217C24.7102 30.3554 21.971 27.879 19.3984 30.4708C16.5265 33.3639 17.0498 37.74 20.0314 40.3325C24.1198 43.8867 25.4736 48.1619 25.9007 51.0348C25.9519 51.0348 26.0028 51.037 26.0541 51.037C28.3294 51.037 30.5333 50.7263 32.6269 50.1474C32.4734 48.7199 32.5325 47.4539 32.5354 47.3941Z" fill="#F7FBFA"/>
<path d="M41.1326 32.4044C40.2816 33.5827 39.1203 34.5608 37.7001 35.2L30.8344 38.2919C30.3034 38.5307 29.7612 38.7114 29.2147 38.8363C27.9238 39.1317 26.6092 39.1166 25.3658 38.8269C25.9804 37.6909 26.8534 36.6864 27.9478 35.9115C28.393 35.5963 28.8749 35.3189 29.3911 35.0867L36.2568 31.9949C37.677 31.3556 39.1792 31.134 40.6251 31.278C41.1727 31.3322 41.4545 31.9586 41.1326 32.4044Z" fill="#F29B4C"/>
<path d="M48.7667 28.4263C47.9157 29.6046 46.7543 30.5827 45.3342 31.222L38.4684 34.3138C37.9374 34.5527 37.3953 34.7334 36.8487 34.8583C35.5578 35.1537 34.2433 35.1386 32.9999 34.8489C33.6144 33.7129 34.4874 32.7084 35.5819 31.9334C36.027 31.6183 36.5089 31.3409 37.0251 31.1087L43.8909 28.0169C45.311 27.3776 46.8133 27.156 48.2592 27.2999C48.8067 27.3542 49.0885 27.9805 48.7667 28.4263Z" fill="#F29B4C" stroke="#3C2C2D" stroke-width="0.865126"/>
<path d="M29.2147 38.8363C27.9238 39.1317 26.6092 39.1166 25.3658 38.8269C25.9804 37.6909 26.8533 36.6864 27.9478 35.9115C28.8082 36.6255 29.2825 37.7166 29.2147 38.8363Z" fill="#FFF273"/>
<path d="M26.1871 36.4793C24.9526 36.0015 23.5662 36.6524 23.0971 37.8902C22.8237 38.6117 22.1574 39.1097 21.388 39.1678C21.0914 39.1902 21.0322 39.5997 21.3103 39.7051L24.4504 40.8952C25.6881 41.3644 27.0944 40.7576 27.5548 39.5166C28.0058 38.3008 27.3964 36.9474 26.1871 36.4793Z" fill="#FFF273"/>
<path d="M25.4674 36.9929C24.1591 36.4857 23.8252 36.1907 23.2888 37.6058C22.9762 38.4307 22.2492 39.0132 21.4239 39.1002C21.1058 39.1338 21.0312 39.5993 21.326 39.7111L24.6547 40.9727C25.9668 41.47 26.3486 41.3613 26.8757 39.9427C27.094 39.3552 25.8522 39.3214 25.6954 38.8687C25.4813 38.2506 26.2073 37.2797 25.4674 36.9929Z" fill="#FE6768"/>
<path d="M29.1713 38.5615C29.1308 38.4401 29.0513 37.694 28.8199 37.1827C28.5764 36.6449 28.0452 35.9917 27.9481 35.9112C27.546 36.196 27.1733 36.512 26.8325 36.8544" stroke="#3C2C2D" stroke-width="0.865126" stroke-miterlimit="10" stroke-linecap="round" stroke-linejoin="round"/>
<path d="M26.8322 36.8546C27.173 36.5122 27.5457 36.1962 27.9478 35.9113C28.393 35.5962 28.8749 35.3188 29.3911 35.0866L36.2568 31.9948C37.677 31.3555 39.1793 31.1338 40.6251 31.2778C41.1727 31.3321 41.4545 31.9584 41.1326 32.4042C40.2816 33.5825 39.1203 34.5606 37.7001 35.1999L30.8344 38.2917C30.3034 38.5305 29.7612 38.7113 29.2147 38.8361C28.7037 38.9531 28.189 39.0215 27.6767 39.0432" stroke="#3C2C2D" stroke-width="0.865126" stroke-miterlimit="10" stroke-linecap="round" stroke-linejoin="round"/>
<path d="M26.1871 36.4793C24.9526 36.0015 23.5662 36.6524 23.0971 37.8902C22.8237 38.6117 22.1574 39.1097 21.388 39.1678C21.0914 39.1902 21.0322 39.5997 21.3103 39.7051L24.4504 40.8952C25.6881 41.3644 27.0944 40.7576 27.5548 39.5166C28.0058 38.3008 27.3964 36.9474 26.1871 36.4793Z" stroke="#3C2C2D" stroke-width="0.865126" stroke-miterlimit="10" stroke-linecap="round" stroke-linejoin="round"/>
<path d="M33.3344 35.1004C33.0814 34.9648 32.7928 34.9704 32.6572 35.2227L28.9718 34.073L23.9532 35.4931L19.7087 39.1016C16.727 36.5091 16.4725 33.3634 19.3444 30.4703C21.9169 27.8785 24.6562 30.355 28.9718 30.7212C34.9895 31.2316 34.3327 27.446 36.1581 28.2787C36.8978 28.6161 37.4897 28.872 37.9619 29.0667C38.0974 29.1229 38.2351 29.164 38.3743 29.1935C38.4471 29.5742 38.6209 29.9253 38.8775 30.0724C39.7023 30.5446 40.7246 30.564 41.496 30.9923C41.9934 32.7989 40.9235 33.9979 40.4499 34.3028C39.1356 35.1478 37.6908 35.4167 36.7104 35.4931C35.3896 35.5955 34.0813 35.5012 33.3344 35.1004Z" fill="#F7FBFA"/>
<path d="M43.2154 29.3084C43.2147 29.4534 43.2089 29.5983 43.2046 29.7432C43.2032 29.803 43.201 29.865 43.1988 29.9299L43.2003 29.9133C43.1988 29.9414 43.1974 29.9696 43.196 29.9977C43.1794 30.4295 43.1361 30.8787 42.9458 31.4936C43.1462 31.8534 43.3034 32.1439 43.4274 32.3804C43.9472 30.5708 43.7201 29.6134 43.2075 29.0266C43.2147 29.1138 43.2183 29.2068 43.2154 29.3084Z" fill="#F7FBFA"/>
<path d="M31.2563 11.22C31.1222 11.0477 30.9211 10.9439 30.7041 10.9338C30.4849 10.9252 30.2867 11.0073 30.1382 11.166C29.1584 12.2164 28.3409 14.5897 27.9674 15.8081L29.1166 15.8521C30.4114 15.9032 31.6435 16.245 32.727 16.8333C32.8741 13.8031 31.8922 12.034 31.2563 11.22Z" fill="#F29B4C"/>
<path d="M39.7619 26.9608C38.2602 26.8635 36.4542 24.736 35.814 23.6957C35.7744 23.6316 35.7001 23.597 35.6258 23.6078L34.9914 23.7037C34.8905 23.7195 34.8191 23.814 34.8328 23.9156C35.2921 27.335 33.9908 29.2967 30.9664 29.7458C30.6607 29.7905 30.337 29.8194 30.0032 29.8309C29.965 29.8324 29.9268 29.8331 29.8886 29.8331C27.4857 29.8331 26.2573 27.229 26.0374 25.9451C26.0215 25.8528 25.9325 25.785 25.849 25.7886L21.7042 26.1008C21.5293 26.0964 21.3639 26.1073 21.2017 26.1311C20.5447 26.2284 19.9376 26.5535 19.4923 27.0474C19.3726 27.18 19.1608 27.2081 19.0101 27.1115C18.8424 27.0034 18.7328 26.8354 18.7015 26.6386C18.6701 26.4418 18.7222 26.2478 18.8481 26.0936L19.2383 25.6134C19.6323 25.1297 20.1889 24.8132 20.8059 24.7216L26.1224 23.6799C26.1873 23.6705 26.2378 23.6344 26.2659 23.5818C26.9832 22.2438 28.6897 22.0224 29.4178 21.9273C29.4813 21.9193 29.5368 21.9121 29.5829 21.9049C29.7041 21.8869 29.7761 21.8811 29.7776 21.8811L35.3771 21.4529C35.1291 20.7824 34.7903 20.1256 34.3649 19.5676C33.1314 17.9498 31.2036 16.9744 29.0754 16.8901L22.9869 16.787C21.6654 16.7423 20.841 15.0574 19.8862 13.1059C19.1957 11.695 18.413 10.0952 17.4335 9.19477C17.1616 8.9446 16.7752 8.82709 16.3479 8.86386C15.8675 8.90423 15.4205 9.13565 15.1522 9.48243C14.1453 10.7844 12.9312 13.3409 12.8657 18.1258C12.865 18.1798 12.8559 18.2332 12.8389 18.2836C12.8117 18.3651 10.124 26.4648 10.4269 32.1365C10.6381 36.0923 8.60687 40.0589 7.18359 42.3197C11.6873 47.6129 18.3788 50.989 25.8464 51.0344C25.4194 48.1615 24.0655 43.8863 19.9772 40.3321C16.9955 37.7396 16.4722 33.3635 19.3442 30.4704C21.9167 27.8786 24.656 30.355 28.9716 30.7213C34.9893 31.2317 34.3325 27.446 36.1579 28.2787C36.8976 28.6161 37.4895 28.8721 37.9617 29.0667C38.0972 29.1229 38.2349 29.164 38.3741 29.1936C38.2839 28.7178 38.3517 28.1944 38.6192 27.9644C39.0539 27.5888 39.635 27.3848 40.2348 27.2773C40.0827 27.1786 39.9248 27.0733 39.7619 26.9608Z" fill="#F29B4C"/>
<path d="M40.6301 27.9405C40.5212 28.1712 40.7519 28.5093 41.1463 28.6953C41.5406 28.8828 41.9487 28.8474 42.0576 28.6175C42.1664 28.3868 41.9357 28.0494 41.5414 27.8619C41.147 27.6752 40.739 27.7105 40.6301 27.9405Z" fill="#F7FBFA"/>
<path d="M30.5513 21.3236C31.5102 21.6235 32.42 21.4425 32.5836 20.9191C32.7473 20.3957 32.1035 19.7282 31.1446 19.4275C30.1865 19.1276 29.2767 19.3086 29.1123 19.832C28.9487 20.3554 29.5925 21.0237 30.5513 21.3236Z" fill="#F7FBFA"/>
<path d="M35.1256 20.8484C34.9187 20.4007 34.67 19.9717 34.3801 19.5875C34.1206 20.0748 34.0874 20.5478 34.3412 20.7814C34.52 20.9472 34.8084 20.9602 35.1256 20.8484Z" fill="#F7FBFA"/>
<path d="M32.8925 22.9115C32.2263 22.4897 30.341 22.8444 29.9698 22.9201C29.9337 22.9273 29.9085 22.9605 29.9107 22.9973C29.9128 23.034 29.9416 23.0636 29.9784 23.0665C29.9964 23.0679 31.7483 23.2063 32.3691 23.5783C32.8211 23.8487 33.3488 24.2546 33.8405 25.2192C33.8549 25.248 33.8859 25.2639 33.9176 25.2588C33.9212 25.2588 33.9248 25.2574 33.9284 25.2567C33.963 25.2459 33.9847 25.212 33.9796 25.1759C33.971 25.106 33.7439 23.4514 32.8925 22.9115Z" fill="#F7FBFA"/>
<path d="M36.2216 22.2505C36.2382 22.2519 37.8516 22.3795 38.4226 22.7212C38.8386 22.97 39.3245 23.3441 39.7772 24.2323C39.7917 24.2612 39.8227 24.2763 39.8537 24.272C39.858 24.2713 39.8616 24.2705 39.8652 24.2691C39.8998 24.2583 39.9214 24.2244 39.9164 24.1891C39.9077 24.1242 39.6987 22.5965 38.9114 22.0969C38.2957 21.7069 36.5554 22.0342 36.2129 22.1041C36.1769 22.1113 36.1517 22.1445 36.1538 22.1813C36.156 22.218 36.1848 22.2476 36.2216 22.2505Z" fill="#F7FBFA"/>
<path d="M33.5858 49.8436C33.4661 48.5719 33.518 47.458 33.5187 47.4443C33.5339 47.1401 33.5584 46.8265 33.5901 46.5093C33.877 46.3997 33.9484 46.2433 33.9484 46.2433C34.8669 47.2021 36.2417 47.9007 37.1321 47.8935C37.2135 47.8928 37.2914 47.8863 37.3649 47.8733C38.5271 47.6678 38.5833 46.7328 38.0059 44.9477C37.7369 44.1143 38.6763 42.162 37.8119 41.6112C37.7038 41.542 37.4688 41.519 37.308 41.5204C37.2698 41.5204 37.2352 41.5211 37.2085 41.5254C35.7839 41.7201 34.5533 42.8794 34.0941 43.34C34.4206 41.7547 34.789 40.4138 34.9397 39.8875C41.7511 38.6828 42.9046 37.9568 43.7215 34.2043C43.8462 34.151 43.9507 34.05 44.0033 33.9138C45.9434 28.8614 43.6371 27.8262 42.2594 27.2083C42.1491 27.1586 42.0438 27.111 41.9443 27.0634C41.6156 26.9055 41.196 26.6655 40.713 26.3482C40.7887 26.1327 40.8348 25.8566 40.8132 25.5235C40.7382 24.3722 40.4188 23.2734 39.8652 22.2569C39.5105 21.6081 38.7895 21.2245 38.0246 21.28L36.4501 21.3745C36.161 20.4986 35.7385 19.6565 35.1906 18.9377C34.7667 18.3826 34.2728 17.8938 33.7235 17.4771C34.0573 13.7535 32.8432 11.5661 32.0747 10.5813C31.7532 10.1697 31.2709 9.92095 30.7503 9.89788C30.2262 9.87625 29.7331 10.0796 29.3791 10.4588C28.1701 11.755 27.2437 14.5854 26.894 15.7678L23.0244 15.7497C22.324 15.7259 21.5243 14.0916 20.8189 12.6497C20.0882 11.1559 19.2597 9.46315 18.1362 8.43077C17.6479 7.98162 16.9821 7.76823 16.2604 7.82951C15.4955 7.89439 14.7743 8.27504 14.3312 8.84747C13.2333 10.267 11.9113 13.0109 11.8291 18.0315C11.5319 18.9341 9.08945 26.5573 9.39044 32.1915C9.57796 35.7031 7.8268 39.2819 6.49039 41.4678C3.23766 37.2842 1.29769 32.0321 1.29769 26.3338C1.29769 12.7131 12.3792 1.6316 26.0001 1.6316C39.6208 1.6316 50.7023 12.7131 50.7023 26.3338C50.7023 37.3094 43.5066 46.6347 33.5858 49.8436ZM36.1538 22.1819C36.1516 22.1452 36.1768 22.112 36.2129 22.1048C36.5553 22.0349 38.2957 21.7076 38.9114 22.0976C39.6986 22.5972 39.9077 24.1249 39.9163 24.1898C39.9214 24.2251 39.8998 24.259 39.8652 24.2698C39.8616 24.2712 39.8579 24.2719 39.8536 24.2727C39.8226 24.277 39.7916 24.2619 39.7772 24.233C39.3245 23.3448 38.8385 22.9707 38.4226 22.7219C37.8516 22.3802 36.2381 22.2526 36.2215 22.2512C36.1848 22.2483 36.1559 22.2187 36.1538 22.1819ZM29.9104 22.9981C29.9083 22.9613 29.9335 22.9281 29.9696 22.9209C30.3408 22.8452 32.2261 22.4905 32.8922 22.9123C33.7437 23.4522 33.9708 25.1068 33.9794 25.1767C33.9845 25.2128 33.9628 25.2467 33.9282 25.2575C33.9246 25.2582 33.921 25.2596 33.9174 25.2596C33.8857 25.2647 33.8547 25.2488 33.8403 25.22C33.3486 24.2554 32.8209 23.8495 32.3688 23.5791C31.7481 23.2071 29.9962 23.0687 29.9782 23.0673C29.9414 23.0644 29.9126 23.0348 29.9104 22.9981ZM41.1463 28.6956C40.7519 28.5096 40.5212 28.1715 40.6301 27.9408C40.7389 27.7108 41.147 27.6755 41.5413 27.8622C41.9357 28.0497 42.1664 28.3871 42.0575 28.6178C41.9487 28.8477 41.5406 28.8831 41.1463 28.6956ZM43.4273 32.3811C43.3033 32.1446 43.1462 31.8541 42.9457 31.4943C43.1361 30.8794 43.1793 30.4302 43.1959 29.9984C43.1973 29.9702 43.1988 29.9421 43.2002 29.914L43.1988 29.9306C43.2009 29.8657 43.2031 29.8037 43.2046 29.7439C43.2089 29.599 43.2146 29.4541 43.2154 29.3091C43.2183 29.2075 43.2146 29.1145 43.2074 29.0273C43.72 29.6141 43.9471 30.5715 43.4273 32.3811ZM32.7271 16.834C31.6436 16.2457 30.4115 15.904 29.1167 15.8528L27.9675 15.8089C28.341 14.5905 29.1585 12.2171 30.1383 11.1667C30.2868 11.0081 30.485 10.9259 30.7042 10.9346C30.9212 10.9447 31.1223 11.0485 31.2564 11.2208C31.8923 12.0347 32.8742 13.8039 32.7271 16.834ZM26.0001 51.0368C25.9487 51.0368 25.8978 51.0346 25.8466 51.0346C18.379 50.9892 11.6875 47.613 7.18379 42.3199C8.60707 40.0591 10.6383 36.0925 10.4271 32.1367C10.1242 26.465 12.8119 18.3653 12.8391 18.2838C12.8561 18.2334 12.8652 18.18 12.8659 18.1259C12.9314 13.3411 14.1455 10.7846 15.1524 9.48262C15.4207 9.13585 15.8677 8.90443 16.3481 8.86406C16.7754 8.82729 17.1618 8.9448 17.4337 9.19496C18.4132 10.0954 19.1959 11.6952 19.8864 13.1061C20.8412 15.0576 21.6656 16.7425 22.9871 16.7872L29.0756 16.8903C31.2038 16.9746 33.1316 17.95 34.3651 19.5678C34.7905 20.1258 35.1293 20.7826 35.3773 21.4531L29.7778 21.8813C29.7763 21.8813 29.7043 21.8871 29.5831 21.9051C29.537 21.9123 29.4815 21.9195 29.418 21.9275C28.6899 22.0226 26.9834 22.2439 26.2661 23.582C26.238 23.6346 26.1875 23.6707 26.1226 23.6801L20.8061 24.7218C20.1891 24.8134 19.6325 25.1299 19.2385 25.6136L18.8483 26.0938C18.7224 26.248 18.6703 26.442 18.7017 26.6388C18.733 26.8356 18.8426 27.0036 19.0103 27.1117C19.161 27.2083 19.3728 27.1802 19.4925 27.0476C19.9378 26.5537 20.5449 26.2286 21.2019 26.1312C21.3641 26.1075 21.5295 26.0966 21.7044 26.101L25.8492 25.7888C25.9327 25.7852 26.0217 25.853 26.0376 25.9452C26.2574 27.2292 27.4859 29.8333 29.8888 29.8333C29.927 29.8333 29.9652 29.8325 30.0034 29.8311C30.3372 29.8196 30.6609 29.7907 30.9666 29.746C33.991 29.2969 35.2922 27.3352 34.833 23.9158C34.8193 23.8142 34.8907 23.7197 34.9916 23.7038L35.626 23.608C35.7003 23.5971 35.7746 23.6318 35.8142 23.6959C36.4544 24.7362 38.2604 26.8637 39.7621 26.961C39.925 27.0735 40.0829 27.1788 40.235 27.2775C39.6352 27.385 39.0541 27.589 38.6194 27.9646C38.3519 28.1946 38.2841 28.718 38.3743 29.1938C38.4471 29.5744 38.6208 29.9255 38.8775 30.0726C39.7022 30.5448 40.7245 30.5643 41.4959 30.9925C41.9934 32.7992 40.9235 33.9981 40.4498 34.3031C39.1356 35.148 38.2359 35.3475 36.7103 35.4933C34.1176 35.7411 31.0329 34.1027 30.2861 33.7018C30.033 33.5663 29.7187 33.6614 29.5831 33.9138C29.4483 34.1668 29.5428 34.4812 29.7958 34.6167C30.5578 35.0262 33.454 36.5632 35.9887 36.5596C36.3023 36.5592 36.4785 36.5537 36.7911 36.5286C38.516 36.3904 39.5148 36.1386 41.0107 35.1761C41.6105 34.7904 42.2673 33.9909 42.5355 32.9239C42.6638 33.1676 42.7626 33.3637 42.8116 33.4769C42.0799 37.2142 41.6524 37.6879 33.8028 39.0317C32.5613 39.2437 31.8267 40.098 31.6191 41.5709C31.5787 41.8542 31.7762 42.1173 32.0603 42.157C32.0848 42.1606 32.1093 42.1628 32.1338 42.1628C32.3883 42.1628 32.6104 41.9753 32.6471 41.7158C32.8108 40.5558 33.3032 40.2177 33.8035 40.0908C33.6117 40.7908 33.3212 41.9176 33.0595 43.2031C33.0545 43.2031 33.0494 43.2016 33.0444 43.2016C32.5361 43.1598 32.2383 43.3199 32.0639 43.3977C32.0639 43.3977 31.7697 42.8491 30.9046 42.219C29.7381 41.3676 28.9055 41.17 27.6633 41.1707C27.6582 41.1707 27.6532 41.1707 27.6481 41.1707C27.398 41.1729 27.1853 41.2176 27.0166 41.3092C26.6619 41.5017 26.3692 41.9263 26.4117 42.6523C26.4485 43.2694 26.9654 44.2441 26.6432 45.2066C26.2185 46.4776 26.2048 48.3599 27.721 48.3477C29.4721 48.334 30.5153 47.7825 31.255 47.2612C31.8981 46.8078 32.1468 46.3615 32.1468 46.3615C32.1468 46.3615 32.3263 46.4595 32.544 46.5331C32.5166 46.8236 32.4957 47.1113 32.4813 47.3939C32.4784 47.4537 32.4193 48.7197 32.5729 50.1471C30.4793 50.7261 28.2754 51.0368 26.0001 51.0368ZM26.0001 0.333912C11.6636 0.333912 0 11.998 0 26.3338C0 40.6704 11.6636 52.3345 26.0001 52.3345C40.3367 52.3345 52 40.6704 52 26.3338C52 11.998 40.3367 0.333912 26.0001 0.333912Z" fill="#3C2C2D"/>
<path d="M17.358 11.0621C17.4097 11.0051 17.4412 10.9763 17.4448 10.9734C17.5809 10.8587 17.5988 10.6547 17.4846 10.5177C17.3698 10.38 17.1655 10.3613 17.0276 10.4766C16.9477 10.543 15.0727 12.1651 15.3849 17.0567C15.3912 17.1554 15.4426 17.2463 15.5244 17.3032C15.5467 17.3183 16.1947 17.4669 16.3633 17.0487C16.6762 16.2737 16.7982 15.5722 17.1178 15.4937C17.4248 15.418 17.9242 16.441 18.0195 16.5498C18.0195 16.5498 18.1139 15.658 18.4134 15.658C18.6222 15.658 18.9625 16.0596 19.1498 16.3033C19.5005 16.4511 19.4839 16.3501 19.4999 15.9745C19.5303 15.2644 18.3728 12.0094 17.358 11.0621Z" fill="#3C2C2D"/>
<path d="M29.4614 15.8722C29.4614 15.8722 30.0295 12.69 31.0987 12.69C31.9227 12.69 32.1621 16.5874 32.1621 16.5874L29.4614 15.8722Z" fill="#3C2C2D"/>
<path d="M30.3544 14.1349C30.3393 14.1349 30.3234 14.1334 30.3076 14.1306C30.1713 14.1046 30.0812 13.9741 30.1064 13.8379C30.1122 13.8069 30.2564 13.0585 31.1049 12.4349C31.2174 12.3527 31.3753 12.3772 31.4582 12.489C31.5404 12.6015 31.5158 12.7593 31.4041 12.8422C30.7257 13.3397 30.6067 13.9064 30.6024 13.9301C30.5786 14.0505 30.4726 14.1349 30.3544 14.1349Z" fill="#3C2C2D"/>
<path d="M77.6943 21.5672C77.6352 20.8286 77.3582 20.2525 76.8634 19.8388C76.3759 19.4252 75.6335 19.2184 74.6364 19.2184C74.0011 19.2184 73.4804 19.2959 73.0741 19.451C72.6753 19.5988 72.3798 19.8019 72.1878 20.0604C71.9957 20.3189 71.896 20.6144 71.8886 20.9468C71.8739 21.2201 71.9219 21.4675 72.0327 21.6891C72.1509 21.9033 72.3355 22.0991 72.5866 22.2763C72.8378 22.4462 73.1591 22.6013 73.5506 22.7417C73.942 22.882 74.4074 23.0076 74.9466 23.1184L76.808 23.5172C78.0636 23.7831 79.1384 24.134 80.0321 24.5698C80.9259 25.0056 81.6571 25.5189 82.2259 26.1098C82.7946 26.6934 83.2119 27.3508 83.4778 28.082C83.7511 28.8133 83.8915 29.611 83.8989 30.4752C83.8915 31.9672 83.5185 33.2303 82.7798 34.2644C82.0412 35.2985 80.9849 36.0851 79.6111 36.6243C78.2446 37.1635 76.6011 37.4331 74.6807 37.4331C72.7085 37.4331 70.9875 37.1414 69.5176 36.5579C68.0551 35.9743 66.9176 35.0769 66.1051 33.8655C65.3 32.6468 64.8938 31.0883 64.8864 29.19H70.7364C70.7733 29.8843 70.9469 30.4678 71.2571 30.9405C71.5673 31.4133 72.0031 31.7715 72.5645 32.0152C73.1332 32.259 73.8091 32.3809 74.592 32.3809C75.2494 32.3809 75.7997 32.2996 76.2429 32.1371C76.6861 31.9746 77.0222 31.7493 77.2511 31.4613C77.4801 31.1732 77.5983 30.8445 77.6057 30.4752C77.5983 30.128 77.4838 29.8252 77.2622 29.5667C77.048 29.3008 76.6935 29.0644 76.1986 28.8576C75.7037 28.6434 75.0352 28.4439 74.1932 28.2593L71.933 27.7718C69.9239 27.336 68.3395 26.6084 67.1798 25.5891C66.0276 24.5624 65.4551 23.1627 65.4625 21.39C65.4551 19.9496 65.8392 18.6902 66.6148 17.6118C67.3977 16.526 68.4798 15.6803 69.8611 15.0746C71.2497 14.4689 72.8415 14.1661 74.6364 14.1661C76.4682 14.1661 78.0526 14.4726 79.3895 15.0857C80.7264 15.6988 81.7568 16.563 82.4807 17.6783C83.2119 18.7863 83.5813 20.0826 83.5886 21.5672H77.6943ZM86.2422 37.1672V14.4763H92.4024V23.34H100.557V14.4763H106.717V37.1672H100.557V28.3036H92.4024V37.1672H86.2422ZM115.802 14.4763V37.1672H109.642V14.4763H115.802ZM118.722 37.1672V14.4763H128.561C130.289 14.4763 131.74 14.709 132.915 15.1743C134.097 15.6397 134.987 16.2971 135.585 17.1465C136.191 17.9959 136.493 18.9968 136.493 20.1491C136.493 20.9837 136.309 21.7445 135.939 22.4314C135.578 23.1184 135.068 23.6945 134.411 24.1598C133.753 24.6178 132.985 24.9354 132.106 25.1127V25.3343C133.081 25.3712 133.967 25.6187 134.765 26.0766C135.563 26.5272 136.198 27.1513 136.671 27.9491C137.143 28.7394 137.38 29.6701 137.38 30.7411C137.38 31.982 137.055 33.0863 136.405 34.0539C135.762 35.0215 134.846 35.7823 133.657 36.3363C132.468 36.8902 131.05 37.1672 129.403 37.1672H118.722ZM124.882 32.2479H127.763C128.797 32.2479 129.572 32.0559 130.089 31.6718C130.607 31.2803 130.865 30.7042 130.865 29.9434C130.865 29.4116 130.743 28.961 130.499 28.5917C130.256 28.2223 129.909 27.9417 129.458 27.7496C129.015 27.5576 128.479 27.4616 127.851 27.4616H124.882V32.2479ZM124.882 23.6502H127.408C127.947 23.6502 128.424 23.5652 128.838 23.3954C129.251 23.2255 129.572 22.9817 129.801 22.6641C130.038 22.3391 130.156 21.9439 130.156 21.4786C130.156 20.7769 129.905 20.2414 129.403 19.8721C128.9 19.4954 128.265 19.307 127.497 19.307H124.882V23.6502ZM145.457 37.1672H138.809L146.299 14.4763H154.719L162.209 37.1672H155.561L150.598 20.7252H150.42L145.457 37.1672ZM144.216 28.215H156.714V32.8241H144.216V28.215ZM164.395 37.1672V14.4763H174.189C175.873 14.4763 177.347 14.7829 178.61 15.3959C179.873 16.009 180.855 16.8917 181.557 18.0439C182.258 19.1962 182.609 20.5775 182.609 22.1877C182.609 23.8127 182.247 25.1829 181.524 26.2982C180.807 27.4135 179.799 28.2556 178.499 28.8243C177.206 29.3931 175.696 29.6775 173.967 29.6775H168.117V24.8911H172.726C173.45 24.8911 174.067 24.8025 174.577 24.6252C175.094 24.4405 175.489 24.1488 175.762 23.7499C176.043 23.351 176.183 22.8303 176.183 22.1877C176.183 21.5377 176.043 21.0096 175.762 20.6033C175.489 20.1897 175.094 19.8868 174.577 19.6948C174.067 19.4954 173.45 19.3956 172.726 19.3956H170.555V37.1672H164.395ZM177.69 26.7525L183.363 37.1672H176.671L171.131 26.7525H177.69ZM184.615 19.44V14.4763H204.336V19.44H197.511V37.1672H191.44V19.44H184.615Z" fill="#3C2C2D"/>
</svg>
